<?xml version="1.0" encoding="utf-8"?>
<!-- Generator: Adobe Illustrator 16.0.0, SVG Export Plug-In . SVG Version: 6.00 Build 0)  -->
<!DOCTYPE svg PUBLIC "-//W3C//DTD SVG 1.1//EN" "http://www.w3.org/Graphics/SVG/1.1/DTD/svg11.dtd">
<svg version="1.1" id="Layer_2_copy" xmlns="http://www.w3.org/2000/svg" xmlns:xlink="http://www.w3.org/1999/xlink" x="0px"
	 y="0px" width="16px" height="16px" viewBox="0 0 16 16" enable-background="new 0 0 16 16" xml:space="preserve">
<path fill="#343434" d="M13,0H4C2.897,0,2,0.897,2,2v12c0,1.103,0.897,2,2,2h9c0.552,0,1-0.448,1-1V1C14,0.448,13.552,0,13,0z
	 M11.3,0.8v3.034l-0.817-0.817C10.405,2.939,10.303,2.9,10.2,2.9S9.996,2.939,9.917,3.017L9.1,3.834V0.8H11.3z M4,0.8h4.3v4
	c0,0.162,0.098,0.308,0.247,0.37s0.321,0.028,0.436-0.086L10.2,3.865l1.217,1.217c0.077,0.077,0.178,0.117,0.283,0.117
	c0.052,0,0.104-0.01,0.153-0.03C12.002,5.107,12.1,4.962,12.1,4.8v-4H13c0.11,0,0.2,0.09,0.2,0.2v11.02
	C13.136,12.007,13.068,12,13,12H4c-0.45,0-0.865,0.149-1.2,0.401V2C2.8,1.338,3.339,0.8,4,0.8z M13.2,13.6H4
	c-0.221,0-0.4,0.179-0.4,0.4s0.179,0.4,0.4,0.4h9.2V15c0,0.11-0.09,0.2-0.2,0.2H4c-0.661,0-1.2-0.539-1.2-1.2s0.539-1.2,1.2-1.2h9
	c0.11,0,0.2,0.09,0.2,0.2V13.6z"/>
</svg>
