<?xml version="1.0" encoding="utf-8"?>
<!-- Generator: Adobe Illustrator 16.0.0, SVG Export Plug-In . SVG Version: 6.00 Build 0)  -->
<!DOCTYPE svg PUBLIC "-//W3C//DTD SVG 1.1//EN" "http://www.w3.org/Graphics/SVG/1.1/DTD/svg11.dtd">
<svg version="1.1" id="Layer_1" xmlns="http://www.w3.org/2000/svg" xmlns:xlink="http://www.w3.org/1999/xlink" x="0px" y="0px"
	 width="16px" height="16px" viewBox="0 0 16 16" enable-background="new 0 0 16 16" xml:space="preserve">
<g id="Layer_2">
	<g>
		<path fill="#333333" d="M8,7.6c-2.095,0-3.8-1.705-3.8-3.8S5.905,0,8,0s3.8,1.705,3.8,3.8C11.8,5.896,10.095,7.6,8,7.6z M8,0.8
			c-1.654,0-3,1.346-3,3s1.346,3,3,3s3-1.346,3-3C11,2.146,9.654,0.8,8,0.8z"/>
	</g>
	<g>
		<path fill="#333333" d="M12.5,16h-9c-1.103,0-2-0.896-2-2v-1.9C1.5,10.107,3.105,7.7,5.1,7.7h0.346
			c0.072,0,0.144,0.02,0.205,0.057C6.359,8.178,7.171,8.4,8,8.4c0.828,0,1.641-0.222,2.349-0.643C10.41,7.72,10.48,7.7,10.553,7.7
			H10.9c1.994,0,3.6,2.407,3.6,4.399V14C14.5,15.104,13.604,16,12.5,16z M5.1,8.5c-0.679,0-1.386,0.429-1.942,1.176
			C2.629,10.388,2.3,11.316,2.3,12.1V14c0,0.662,0.539,1.2,1.2,1.2h9c0.661,0,1.2-0.538,1.2-1.2v-1.9
			c0-0.783-0.329-1.712-0.858-2.424C12.286,8.929,11.578,8.5,10.9,8.5h-0.24C9.852,8.959,8.935,9.2,8,9.2S6.147,8.959,5.339,8.5H5.1
			z"/>
	</g>
</g>
<g id="Layer_1_1_" display="none">
	
		<image display="inline" overflow="visible" opacity="0.75" enable-background="new    " width="1182" height="567" xlink:href="55516388.png"  transform="matrix(0.5644 0 0 0.5644 -171.5454 0)">
	</image>
</g>
</svg>
