<?xml version="1.0" encoding="utf-8"?>
<!-- Generator: Adobe Illustrator 24.0.3, SVG Export Plug-In . SVG Version: 6.00 Build 0)  -->
<svg version="1.1" id="Layer_1" xmlns="http://www.w3.org/2000/svg" xmlns:xlink="http://www.w3.org/1999/xlink" x="0px" y="0px"
	 viewBox="0 0 219.1 32" style="enable-background:new 0 0 219.1 32;" xml:space="preserve">
<style type="text/css">
	.st0{fill:#E2E2E2;}
	.st1{fill:#FFFFFF;}
</style>
<g>
	<g>
		<g>
			<g>
				<path class="st0" d="M59.5,4.5c-3.5,0-6.3,2.8-6.3,6.3v16.7h2.3V10.8c0-2.2,1.8-3.9,3.9-3.9c1.6,0,2.9,0.9,3.6,2.3
					c0.5-0.1,1-0.2,1.5-0.2c0.3,0,0.6,0,0.9,0.1C64.7,6.4,62.3,4.5,59.5,4.5z"/>
			</g>
		</g>
		<g>
			<g>
				<path class="st0" d="M64.6,10.3c-3,0-5.4,2.4-5.4,5.4v0.7H70v-0.7C70,12.8,67.6,10.3,64.6,10.3z"/>
			</g>
		</g>
		<g>
			<g>
				<polygon class="st0" points="59,17.3 58.9,17.9 57,26.7 58.4,26.9 60.3,17.9 60.4,17.6 				"/>
			</g>
		</g>
		<g>
			<g>
				<polygon class="st0" points="61.5,17.9 61.5,17.9 61.5,17.9 60.5,27.2 61.9,27.3 62.8,18 				"/>
			</g>
		</g>
		<g>
			<g>
				<rect x="63.9" y="18.2" class="st0" width="1.4" height="9.3"/>
			</g>
		</g>
		<g>
			<g>
				<polygon class="st0" points="67.7,17.9 67.7,17.9 67.7,17.9 66.4,18 67.3,27.3 68.7,27.2 				"/>
			</g>
		</g>
		<g>
			<g>
				<polygon class="st0" points="70.3,17.9 70.2,17.3 68.8,17.6 68.9,17.9 70.8,26.9 72.2,26.7 				"/>
			</g>
		</g>
	</g>
	<g>
		<path class="st1" d="M1.2,8.4h6.2c1.5,0,2.6,0.4,3.4,1.1c0.8,0.7,1.1,1.7,1.1,3.1c0,0.8-0.1,1.5-0.4,2c-0.3,0.5-0.7,1-1.3,1.4
			c0.6,0.1,1.1,0.3,1.5,0.5c0.4,0.2,0.8,0.5,1,0.9c0.3,0.3,0.5,0.7,0.6,1.1c0.1,0.4,0.2,0.9,0.2,1.4c0,0.8-0.1,1.4-0.4,2
			c-0.3,0.6-0.6,1.1-1.1,1.5c-0.5,0.4-1.1,0.7-1.7,0.9c-0.7,0.2-1.4,0.3-2.3,0.3H1.2V8.4z M5.3,14.7h0.8c1.3,0,2-0.5,2-1.6
			s-0.7-1.6-2-1.6H5.3V14.7z M5.3,21.3h0.9c1,0,1.8-0.1,2.3-0.4c0.5-0.3,0.7-0.7,0.7-1.3c0-0.6-0.2-1-0.7-1.3
			C8,18,7.3,17.8,6.2,17.8H5.3V21.3z"/>
		<path class="st1" d="M25.5,21.7h-6l-1,2.8h-4.4l6.1-16.1h4.6l6.1,16.1h-4.4L25.5,21.7z M24.4,18.5l-1.9-5.3l-1.9,5.3H24.4z"/>
		<path class="st1" d="M32.7,8.4h6.2C40,8.4,41,8.7,42,9.1c1,0.4,1.8,1,2.5,1.8c0.7,0.7,1.3,1.6,1.7,2.6c0.4,1,0.6,2,0.6,3.1
			c0,1.1-0.2,2.1-0.6,3c-0.4,1-1,1.8-1.7,2.6c-0.7,0.7-1.6,1.3-2.5,1.8c-1,0.4-2,0.7-3.1,0.7h-6.2V8.4z M36.9,21h1
			c0.7,0,1.4-0.1,1.9-0.3c0.6-0.2,1-0.5,1.4-0.9c0.4-0.4,0.7-0.9,0.9-1.4c0.2-0.5,0.3-1.1,0.3-1.8c0-0.6-0.1-1.2-0.3-1.8
			c-0.2-0.6-0.5-1-0.9-1.4c-0.4-0.4-0.9-0.7-1.4-0.9c-0.6-0.2-1.2-0.3-1.9-0.3h-1V21z"/>
	</g>
	<g>
		<path class="st1" d="M81.9,15.1L87,8.4h5.2L85.7,16l7,8.5h-5.4l-5.4-7v7h-4.2V8.4h4.2V15.1z"/>
		<path class="st1" d="M92.8,16.5c0-1.2,0.2-2.3,0.7-3.3c0.4-1,1-1.9,1.8-2.7c0.8-0.8,1.7-1.4,2.8-1.8c1.1-0.4,2.3-0.6,3.6-0.6
			c1.3,0,2.5,0.2,3.6,0.6c1.1,0.4,2,1,2.8,1.8c0.8,0.8,1.4,1.7,1.8,2.7c0.4,1,0.7,2.1,0.7,3.3c0,1.2-0.2,2.3-0.7,3.3
			c-0.4,1-1.1,1.9-1.8,2.7c-0.8,0.8-1.7,1.4-2.8,1.8c-1.1,0.4-2.3,0.6-3.6,0.6c-1.3,0-2.5-0.2-3.6-0.6c-1.1-0.4-2-1-2.8-1.8
			c-0.8-0.8-1.4-1.7-1.8-2.7C93.1,18.8,92.8,17.7,92.8,16.5z M97.2,16.5c0,0.6,0.1,1.2,0.4,1.8c0.2,0.5,0.6,1,1,1.4
			c0.4,0.4,0.9,0.7,1.4,0.9c0.5,0.2,1.1,0.3,1.7,0.3c0.6,0,1.2-0.1,1.7-0.3c0.5-0.2,1-0.5,1.4-0.9c0.4-0.4,0.7-0.9,1-1.4
			c0.2-0.5,0.4-1.1,0.4-1.8c0-0.6-0.1-1.2-0.4-1.8c-0.2-0.5-0.6-1-1-1.4c-0.4-0.4-0.9-0.7-1.4-0.9c-0.5-0.2-1.1-0.3-1.7-0.3
			c-0.6,0-1.2,0.1-1.7,0.3c-0.5,0.2-1,0.5-1.4,0.9c-0.4,0.4-0.7,0.9-1,1.4C97.3,15.2,97.2,15.8,97.2,16.5z"/>
		<path class="st1" d="M112.5,24.5l2.7-16.1h4.1l3.2,8.6l3.2-8.6h4.1l2.7,16.1h-4.2l-1.4-9.2l-3.8,9.2h-1.7l-3.6-9.2l-1.4,9.2H112.5
			z"/>
		<path class="st1" d="M139.5,24.5h-4.2V8.4h6.6c1.8,0,3.2,0.5,4.1,1.4c1,0.9,1.4,2.3,1.4,4s-0.5,3-1.4,4c-1,0.9-2.3,1.4-4.1,1.4
			h-2.5V24.5z M139.5,15.8h1.4c1.5,0,2.3-0.7,2.3-2c0-1.3-0.8-2-2.3-2h-1.4V15.8z"/>
		<path class="st1" d="M158.9,12h-5v2.7h4.7v3.5h-4.7V21h5v3.5h-9.1V8.4h9.1V12z"/>
		<path class="st1" d="M167.9,12v12.5h-4.2V12h-3.4V8.4h11V12H167.9z"/>
		<path class="st1" d="M182.4,12h-5v2.7h4.7v3.5h-4.7V21h5v3.5h-9.1V8.4h9.1V12z"/>
		<path class="st1" d="M185.4,24.5V8.4h4.2l7.7,9.8V8.4h4.2v16.1h-4.2l-7.7-9.8v9.8H185.4z"/>
		<path class="st1" d="M210.4,21h6.7v3.5h-13.7L211,12h-6.3V8.4h13.3L210.4,21z"/>
	</g>
</g>
</svg>
